<?xml version="1.0" encoding="UTF-8" standalone="no"?>
<svg
   xmlns:dc="http://purl.org/dc/elements/1.1/"
   xmlns:cc="http://creativecommons.org/ns#"
   xmlns:rdf="http://www.w3.org/1999/02/22-rdf-syntax-ns#"
   xmlns:svg="http://www.w3.org/2000/svg"
   xmlns="http://www.w3.org/2000/svg"
   xmlns:sodipodi="http://sodipodi.sourceforge.net/DTD/sodipodi-0.dtd"
   xmlns:inkscape="http://www.inkscape.org/namespaces/inkscape"
   height="99.400002"
   width="99.400002"
   sodipodi:docname="keyshot.svg"
   xml:space="preserve"
   viewBox="0 0 99.400002 99.400002"
   y="0px"
   x="0px"
   id="Layer_1"
   version="1.1"
   inkscape:version="1.0 (4035a4fb49, 2020-05-01)"><metadata
   id="metadata35"><rdf:RDF><cc:Work
       rdf:about=""><dc:format>image/svg+xml</dc:format><dc:type
         rdf:resource="http://purl.org/dc/dcmitype/StillImage" /><dc:title></dc:title></cc:Work></rdf:RDF></metadata><defs
   id="defs33">
	
	
	
	
	
	
	
	
		<linearGradient
   id="XMLID_39_"
   gradientUnits="userSpaceOnUse"
   x1="-0.138"
   y1="-0.4443"
   x2="0.49680001"
   y2="-0.4443"
   gradientTransform="matrix(-80.4642,-113.7005,-113.7005,80.4642,12.6431,104.4737)">
		<stop
   offset="0"
   style="stop-color:#006EAD"
   id="stop11" />
		<stop
   offset="4.714984e-002"
   style="stop-color:#0075B9"
   id="stop13" />
		<stop
   offset="0.1723"
   style="stop-color:#0083D2"
   id="stop15" />
		<stop
   offset="0.3115"
   style="stop-color:#008FE6"
   id="stop17" />
		<stop
   offset="0.47"
   style="stop-color:#0097F4"
   id="stop19" />
		<stop
   offset="0.6645"
   style="stop-color:#009CFD"
   id="stop21" />
		<stop
   offset="1"
   style="stop-color:#009DFF"
   id="stop23" />
	</linearGradient>
	
	
	
</defs><sodipodi:namedview
   inkscape:document-rotation="0"
   inkscape:current-layer="Layer_1"
   inkscape:window-maximized="1"
   inkscape:window-y="32"
   inkscape:window-x="-8"
   inkscape:cy="49.7"
   inkscape:cx="223.67647"
   inkscape:zoom="1.7"
   showgrid="false"
   id="namedview31"
   inkscape:window-height="1017"
   inkscape:window-width="1920"
   inkscape:pageshadow="2"
   inkscape:pageopacity="0"
   guidetolerance="10"
   gridtolerance="10"
   objecttolerance="10"
   borderopacity="1"
   bordercolor="#666666"
   pagecolor="#ffffff" />
<style
   id="style2"
   type="text/css">
	.st0{fill:url(#XMLID_39_);}
	.st1{fill:#EDEDED;}
</style>
<path
   id="XMLID_14_"
   style="fill:#000000"
   d="M 93.9,49.7 A 44.200001,44.200001 0 0 1 49.7,93.9 44.200001,44.200001 0 0 1 5.499996,49.7 44.200001,44.200001 0 0 1 49.7,5.5 44.200001,44.200001 0 0 1 93.9,49.7"
   class="st0" /><path
   style="fill:#000000"
   id="XMLID_15_"
   d="m 46,75.9 c -2.1,0 -4.1,-0.8 -5.7,-2.2 L 27,61.8 c -2.2,-2 -3.3,-5 -2.7,-8 l 3.3,-17.9 c 0.6,-3 2.7,-5.6 5.7,-6.6 l 17,-6 c 0.9,-0.3 1.9,-0.5 2.8,-0.5 2.1,0 4.1,0.8 5.7,2.1 l 13.8,12.4 c 2.3,2 3.3,5.2 2.7,8.2 l -3.8,17.9 c -0.6,2.9 -2.8,5.4 -5.6,6.3 l -17,5.5 c -1,0.6 -1.9,0.7 -2.9,0.7 z" /><path
   style="fill:#ffffff"
   id="XMLID_24_"
   class="st1"
   d="M 49.7,0 C 22.3,0 0,22.3 0,49.7 0,77.1 22.3,99.4 49.7,99.4 77.1,99.4 99.4,77.1 99.4,49.7 99.4,22.3 77.2,0 49.7,0 Z M 35.4,7.6 c 3.7,-1.5 21,-5.4 36.2,3.3 1,0.6 1.7,1.4 1.7,2.9 0.1,3.6 0.3,10.8 -0.2,19.4 0,0.6 -0.7,0.9 -1.2,0.6 0,0 -14.6,-15.3 -36.4,-25.2 -0.4,-0.3 -0.4,-0.8 -0.1,-1 z M 72.1,45.1 68.3,63 c -0.4,1.9 -1.8,3.4 -3.6,4 l -17,5.5 c -1.8,0.6 -3.9,0.2 -5.3,-1.1 L 29.1,59.5 c -1.4,-1.3 -2.1,-3.2 -1.7,-5 l 3.3,-17.9 c 0.4,-1.9 1.7,-3.5 3.6,-4.1 l 17.1,-6 c 1.8,-0.6 3.9,-0.2 5.3,1.1 L 70.5,40 c 1.4,1.2 2.1,3.1 1.6,5.1 z M 26.7,11.5 c 1,-0.6 1.9,-0.5 3.3,-0.1 0,0 8.1,2.8 17,9.6 0.5,0.4 0.4,1.1 -0.1,1.3 0,0 -20.3,5.2 -39.7,19.2 -0.3,0.2 -0.8,0 -0.7,-0.4 0.4,-3.9 3.6,-19 20.2,-29.6 z m -5.3,71.3 c 0,0.4 -0.4,0.6 -0.7,0.4 C 17.5,80.8 6.2,69.7 5.4,50 5.3,48.8 6.1,48.2 7.2,47.2 c 0,0 7,-5.5 16.7,-9.8 0.5,-0.2 1.1,0.2 1.1,0.8 -0.3,0.8 -6.2,21.5 -3.6,44.6 z m 42.5,8.5 C 60.2,92.8 43,96.7 27.8,88.1 26.8,87.5 26.1,86.7 26.1,85.3 26,81.7 25.8,74.5 26.2,65.9 c 0,-0.6 0.7,-0.9 1.2,-0.6 0,0 14.6,15.2 36.4,25.1 0.5,0.2 0.5,0.7 0.1,0.9 z m 8.5,-3.7 c -1,0.6 -1.9,0.5 -3.3,0 0,0 -8.1,-2.9 -16.9,-9.7 -0.5,-0.4 -0.4,-1.1 0.1,-1.3 0,0 20.3,-5.1 39.8,-19 0.3,-0.2 0.8,0 0.7,0.4 -0.5,4 -3.7,19.1 -20.4,29.6 z M 92.1,52.1 c 0,0 -7,5.4 -16.7,9.6 -0.5,0.2 -1.1,-0.2 -1.1,-0.8 0,0 6.1,-20.7 3.9,-44.5 0,-0.4 0.4,-0.6 0.7,-0.4 3.2,2.5 14.3,13.6 15,33.3 0,1.1 -0.7,1.8 -1.8,2.8 z" />
</svg>
